<svg xmlns="http://www.w3.org/2000/svg" xmlns:xlink="http://www.w3.org/1999/xlink" preserveAspectRatio="xMidYMid" width="37" height="64.97" viewBox="0 0 37 64.97">
  <defs>
    <style>
      .cls-1 {
        fill: #98ca3c;
        fill-rule: evenodd;
      }
    </style>
  </defs>
  <path d="M20.599,34.993 C11.704,34.993 4.189,27.835 4.189,19.363 C4.189,19.019 4.476,18.741 4.830,18.741 L19.043,18.741 L19.043,3.799 C19.043,3.455 19.330,3.176 19.684,3.176 L20.587,3.176 C29.801,3.176 37.009,10.014 37.009,18.742 C37.009,27.703 29.648,34.993 20.599,34.993 ZM20.599,4.421 L20.325,4.421 L20.325,19.363 C20.325,19.707 20.038,19.986 19.684,19.986 L5.486,19.986 C5.842,27.508 12.618,33.747 20.599,33.747 C28.799,33.747 35.728,26.876 35.728,18.742 C35.728,10.712 29.082,4.421 20.599,4.421 ZM15.799,16.199 L0.650,16.199 C0.296,16.199 0.009,15.920 0.009,15.577 C0.009,6.849 6.930,0.012 15.766,0.012 C16.120,0.012 16.440,0.291 16.440,0.634 L16.440,15.577 C16.440,15.920 16.153,16.199 15.799,16.199 ZM15.158,1.270 C7.527,1.581 1.614,7.433 1.304,14.954 L15.158,14.954 L15.158,1.270 ZM1.464,53.005 L3.856,53.005 C4.120,53.005 4.334,53.218 4.334,53.479 L4.334,64.510 C4.334,64.771 4.120,64.983 3.856,64.983 L1.464,64.983 C1.200,64.983 0.986,64.771 0.986,64.510 L0.986,53.479 C0.986,53.218 1.200,53.005 1.464,53.005 ZM1.943,64.036 L3.378,64.036 L3.378,53.952 L1.943,53.952 L1.943,64.036 ZM6.248,43.204 L8.640,43.204 C8.904,43.204 9.119,43.416 9.119,43.677 L9.119,64.510 C9.119,64.771 8.904,64.983 8.640,64.983 L6.248,64.983 C5.984,64.983 5.770,64.771 5.770,64.510 L5.770,43.677 C5.770,43.416 5.984,43.204 6.248,43.204 ZM6.727,64.036 L8.162,64.036 L8.162,44.151 L6.727,44.151 L6.727,64.036 ZM11.032,40.836 L13.903,40.836 C14.167,40.836 14.381,41.049 14.381,41.310 L14.381,64.510 C14.381,64.771 14.167,64.983 13.903,64.983 L11.032,64.983 C10.768,64.983 10.554,64.771 10.554,64.510 L10.554,41.310 C10.554,41.049 10.768,40.836 11.032,40.836 ZM11.511,64.036 L13.424,64.036 L13.424,41.784 L11.511,41.784 L11.511,64.036 ZM15.816,43.204 L18.687,43.204 C18.951,43.204 19.165,43.416 19.165,43.677 L19.165,64.510 C19.165,64.771 18.951,64.983 18.687,64.983 L15.816,64.983 C15.552,64.983 15.338,64.771 15.338,64.510 L15.338,43.677 C15.338,43.416 15.552,43.204 15.816,43.204 ZM16.295,64.036 L18.208,64.036 L18.208,44.151 L16.295,44.151 L16.295,64.036 ZM21.079,40.836 L23.471,40.836 C23.735,40.836 23.949,41.049 23.949,41.310 L23.949,64.510 C23.949,64.771 23.735,64.983 23.471,64.983 L21.079,64.983 C20.814,64.983 20.600,64.771 20.600,64.510 L20.600,41.310 C20.600,41.049 20.814,40.836 21.079,40.836 ZM21.557,64.036 L22.992,64.036 L22.992,41.784 L21.557,41.784 L21.557,64.036 ZM25.863,37.996 L28.733,37.996 C28.997,37.996 29.212,38.208 29.212,38.469 L29.212,64.510 C29.212,64.771 28.997,64.983 28.733,64.983 L25.863,64.983 C25.599,64.983 25.384,64.771 25.384,64.510 L25.384,38.469 C25.384,38.208 25.599,37.996 25.863,37.996 ZM26.341,64.036 L28.255,64.036 L28.255,38.943 L26.341,38.943 L26.341,64.036 ZM30.647,39.416 L33.517,39.416 C33.781,39.416 33.996,39.628 33.996,39.890 L33.996,64.510 C33.996,64.771 33.781,64.983 33.517,64.983 L30.647,64.983 C30.383,64.983 30.168,64.771 30.168,64.510 L30.168,39.890 C30.168,39.628 30.383,39.416 30.647,39.416 ZM31.125,64.036 L33.039,64.036 L33.039,40.363 L31.125,40.363 L31.125,64.036 Z" class="cls-1"/>
</svg>
