<svg xmlns="http://www.w3.org/2000/svg" xmlns:xlink="http://www.w3.org/1999/xlink" preserveAspectRatio="xMidYMid" width="42" height="43" viewBox="0 0 42 43">
  <defs>
    <style>
      .cls-1 {
        fill: #98ca3c;
        fill-rule: evenodd;
      }
    </style>
  </defs>
  <path d="M38.619,43.000 L4.881,43.000 C2.600,43.000 -0.000,40.454 -0.000,38.222 L-0.000,18.428 C-0.000,16.188 2.456,15.016 4.881,15.016 L7.574,15.016 L7.574,12.490 C7.574,5.603 13.871,-0.000 21.612,-0.000 L21.888,-0.000 C29.153,-0.000 34.426,5.253 34.426,12.490 L34.426,15.016 L38.619,15.016 C40.894,15.016 42.000,16.132 42.000,18.428 L42.000,38.222 C42.000,40.523 40.942,43.000 38.619,43.000 ZM4.881,16.381 C3.527,16.381 1.377,16.937 1.377,18.428 L1.377,38.222 C1.377,39.721 3.342,41.635 4.881,41.635 L38.619,41.635 C40.089,41.635 40.623,39.594 40.623,38.222 L40.623,18.428 C40.623,16.897 40.117,16.381 38.619,16.381 L33.049,16.381 L33.049,12.490 C33.049,5.940 28.459,1.365 21.888,1.365 L21.612,1.365 C14.631,1.365 8.951,6.356 8.951,12.490 L8.951,16.381 L4.881,16.381 ZM21.688,31.397 C20.739,31.397 19.967,30.631 19.967,29.690 L19.967,27.910 C18.495,27.237 17.136,25.790 17.136,24.059 C17.136,21.747 19.190,19.794 21.621,19.794 C23.924,19.794 25.660,21.627 25.660,24.059 C25.660,25.845 24.792,27.324 23.410,27.970 L23.410,29.690 C23.410,30.631 22.638,31.397 21.688,31.397 ZM21.621,21.158 C19.965,21.158 18.514,22.514 18.514,24.059 C18.514,25.319 19.733,26.413 20.880,26.804 L21.344,26.962 L21.344,29.690 C21.344,29.879 21.499,30.031 21.688,30.031 C21.878,30.031 22.033,29.879 22.033,29.690 L22.033,26.997 L22.521,26.849 C23.591,26.528 24.283,25.432 24.283,24.059 C24.283,22.379 23.163,21.158 21.621,21.158 ZM31.672,16.381 L11.016,16.381 L11.016,12.787 C11.016,6.997 16.672,3.412 21.912,3.412 L22.277,3.412 C27.633,3.412 31.672,7.442 31.672,12.787 L31.672,16.381 ZM12.393,15.016 L30.295,15.016 L30.295,12.787 C30.295,8.221 26.848,4.778 22.277,4.778 L21.912,4.778 C17.335,4.778 12.393,7.840 12.393,12.787 L12.393,15.016 Z" class="cls-1"/>
</svg>
