<svg xmlns="http://www.w3.org/2000/svg" xmlns:xlink="http://www.w3.org/1999/xlink" preserveAspectRatio="xMidYMid" width="63.938" height="50" viewBox="0 0 63.938 50">
  <defs>
    <style>
      .cls-1 {
        fill: #98ca3c;
        fill-rule: evenodd;
      }
    </style>
  </defs>
  <path d="M51.277,31.113 C51.178,31.157 51.072,31.179 50.967,31.179 C50.861,31.179 50.755,31.157 50.657,31.113 C50.140,30.882 38.000,25.366 38.000,18.212 L38.000,3.850 C38.000,1.303 38.902,0.011 40.681,0.011 C41.847,0.011 43.274,0.586 44.928,1.252 C47.059,2.110 49.475,3.083 51.902,3.083 C54.444,3.083 56.697,2.001 58.508,1.131 C59.810,0.506 60.839,0.011 61.737,0.011 C63.933,0.011 63.933,2.800 63.933,3.850 L63.933,18.212 C63.933,25.366 51.793,30.882 51.277,31.113 ZM62.408,3.850 C62.408,1.547 61.903,1.547 61.737,1.547 C61.184,1.547 60.203,2.018 59.164,2.517 C57.318,3.404 54.789,4.618 51.902,4.618 C49.182,4.618 46.509,3.542 44.361,2.677 C42.917,2.096 41.553,1.547 40.681,1.547 C40.249,1.547 39.525,1.547 39.525,3.850 L39.525,18.212 C39.525,23.809 49.106,28.673 50.966,29.565 C52.826,28.673 62.408,23.803 62.408,18.212 L62.408,3.850 ZM41.002,31.258 L41.002,40.666 C41.002,45.830 32.525,49.762 32.164,49.926 C32.064,49.972 31.957,49.995 31.849,49.995 C31.742,49.995 31.634,49.972 31.534,49.926 C31.173,49.762 22.696,45.830 22.696,40.666 L22.696,31.258 C22.696,29.163 23.422,28.101 24.854,28.101 C25.757,28.101 26.818,28.564 28.047,29.100 C29.539,29.751 31.231,30.490 32.867,30.490 C34.616,30.490 36.076,29.644 37.250,28.964 C38.082,28.482 38.739,28.101 39.372,28.101 C41.002,28.101 41.002,30.313 41.002,31.258 ZM38.010,30.295 C36.750,31.025 35.024,32.025 32.867,32.025 C30.915,32.025 28.988,31.184 27.440,30.509 C26.412,30.060 25.441,29.636 24.854,29.636 C24.649,29.636 24.222,29.636 24.222,31.258 L24.222,40.666 C24.222,43.979 29.456,47.215 31.849,48.380 C34.242,47.215 39.477,43.979 39.477,40.666 L39.477,31.258 C39.477,30.188 39.362,29.784 39.300,29.646 C39.031,29.704 38.470,30.029 38.010,30.295 ZM13.277,31.113 C13.178,31.157 13.072,31.179 12.967,31.179 C12.861,31.179 12.755,31.157 12.657,31.113 C12.140,30.882 -0.000,25.366 -0.000,18.212 L-0.000,3.850 C-0.000,1.303 0.902,0.011 2.681,0.011 C3.847,0.011 5.274,0.586 6.928,1.252 C9.059,2.110 11.475,3.083 13.902,3.083 C16.444,3.083 18.697,2.001 20.508,1.131 C21.810,0.506 22.839,0.011 23.737,0.011 C25.933,0.011 25.933,2.800 25.933,3.850 L25.933,18.212 C25.933,25.366 13.793,30.882 13.277,31.113 ZM24.408,3.850 C24.408,1.547 23.903,1.547 23.737,1.547 C23.184,1.547 22.203,2.018 21.164,2.517 C19.318,3.404 16.789,4.618 13.902,4.618 C11.182,4.618 8.509,3.542 6.361,2.677 C4.917,2.096 3.553,1.547 2.681,1.547 C2.249,1.547 1.525,1.547 1.525,3.850 L1.525,18.212 C1.525,23.809 11.106,28.673 12.966,29.565 C14.826,28.673 24.408,23.803 24.408,18.212 L24.408,3.850 Z" class="cls-1"/>
</svg>
