<svg xmlns="http://www.w3.org/2000/svg" xmlns:xlink="http://www.w3.org/1999/xlink" preserveAspectRatio="xMidYMid" width="44" height="44" viewBox="0 0 44 44">
  <defs>
    <style>
      .cls-1 {
        fill: #98ca3c;
        fill-rule: evenodd;
      }
    </style>
  </defs>
  <path d="M35.615,24.461 L28.347,17.230 L25.906,19.659 C26.633,21.161 25.716,22.074 25.086,22.700 L5.332,42.353 C4.226,43.453 3.228,44.011 2.367,44.011 C1.862,44.011 1.405,43.822 1.046,43.465 L0.860,43.280 C-0.327,42.099 -0.327,39.084 0.860,37.903 L20.614,18.251 C21.157,17.709 21.918,17.412 22.755,17.412 C23.040,17.412 23.322,17.447 23.589,17.515 L26.111,15.006 L19.403,8.331 L27.788,-0.012 L44.001,16.118 L35.615,24.461 ZM24.266,19.983 L23.888,19.442 L23.962,19.369 L23.458,19.131 C23.258,19.037 23.008,18.985 22.755,18.985 C22.515,18.985 22.062,19.034 21.732,19.363 L1.978,39.015 C1.415,39.575 1.415,41.607 1.978,42.167 L2.164,42.353 C2.228,42.416 2.281,42.438 2.367,42.438 C2.678,42.438 3.326,42.123 4.214,41.240 L23.968,21.588 C24.662,20.897 24.806,20.754 24.266,19.983 ZM21.639,8.331 L28.347,15.006 L26.528,16.816 L28.347,15.006 L35.615,22.236 L41.765,16.118 L27.788,2.213 L21.639,8.331 ZM19.223,18.270 C18.528,17.580 18.384,17.437 17.610,17.973 L17.067,18.350 L16.993,18.276 L16.755,18.777 C16.518,19.273 16.541,20.051 16.987,20.495 L15.869,21.608 C15.050,20.793 14.888,19.601 15.130,18.648 L11.205,14.742 C9.374,15.397 6.344,15.469 4.501,13.635 L3.383,12.523 C2.155,11.301 1.635,9.284 1.993,7.128 L2.224,5.735 L7.091,9.963 L9.758,9.293 L10.398,6.729 L5.618,2.321 L7.439,2.193 C9.398,2.057 10.846,3.262 11.769,4.180 L12.887,5.292 C15.093,7.486 15.361,10.338 13.651,12.726 L17.285,16.342 C18.796,15.618 19.712,16.532 20.341,17.158 L19.223,18.270 ZM12.037,6.689 L11.064,10.587 L6.675,11.691 L3.484,8.918 C3.545,9.743 3.793,10.705 4.501,11.411 L5.619,12.523 C7.025,13.922 9.716,13.758 11.039,13.108 L11.547,12.858 L11.510,12.822 L12.000,12.267 C13.573,10.489 13.577,8.427 12.037,6.689 ZM36.741,40.148 C37.303,40.707 39.345,40.707 39.909,40.148 L40.095,39.963 C40.370,39.690 39.910,38.851 38.977,37.923 L25.620,24.634 L26.738,23.522 L40.095,36.811 C42.446,39.150 41.805,40.487 41.213,41.075 L41.027,41.260 C40.434,41.851 39.379,42.146 38.325,42.146 C37.270,42.146 36.216,41.851 35.623,41.260 L22.498,28.203 L23.616,27.091 L36.741,40.148 Z" class="cls-1"/>
</svg>
