<svg xmlns="http://www.w3.org/2000/svg" xmlns:xlink="http://www.w3.org/1999/xlink" preserveAspectRatio="xMidYMid" width="61" height="49" viewBox="0 0 61 49">
  <defs>
    <style>
      .cls-1 {
        fill: #98ca3c;
        fill-rule: evenodd;
      }
    </style>
  </defs>
  <path d="M60.127,11.732 L58.652,11.956 C58.625,12.022 58.599,12.086 58.571,12.147 C58.839,12.506 59.117,12.843 59.369,13.150 C59.539,13.348 59.637,13.606 59.637,13.867 C59.637,14.133 59.546,14.372 59.366,14.580 L59.367,14.580 C59.368,14.580 57.734,16.642 56.862,16.642 C56.641,16.642 56.421,16.573 56.207,16.438 L55.108,15.581 C55.058,15.603 55.007,15.624 54.957,15.644 C54.899,16.152 54.831,16.671 54.695,17.182 C54.575,17.664 54.133,18.008 53.624,18.008 L51.377,18.008 C50.820,18.008 50.352,17.601 50.287,17.061 L50.073,15.654 C50.017,15.632 49.963,15.610 49.909,15.587 L48.834,16.403 C48.482,16.704 47.774,16.722 47.369,16.317 L47.291,16.247 C46.746,15.755 46.068,15.140 45.625,14.529 C45.487,14.337 45.415,14.108 45.415,13.867 C45.415,13.636 45.487,13.416 45.629,13.214 C45.802,12.980 45.971,12.764 46.141,12.548 C46.240,12.422 46.339,12.295 46.437,12.168 C46.398,12.080 46.362,11.993 46.328,11.907 L44.916,11.698 C44.375,11.601 43.998,11.145 43.998,10.611 L43.998,8.364 C43.998,7.857 44.375,7.382 44.855,7.284 L46.345,7.058 C46.371,6.993 46.399,6.927 46.429,6.860 C46.163,6.505 45.891,6.169 45.632,5.853 C45.460,5.654 45.364,5.405 45.364,5.147 C45.364,4.841 45.496,4.623 45.594,4.487 C45.611,4.464 47.251,2.372 48.140,2.372 C48.387,2.372 48.631,2.459 48.847,2.625 L49.892,3.434 C49.943,3.412 49.993,3.391 50.044,3.370 C50.102,2.863 50.171,2.344 50.306,1.833 C50.427,1.350 50.869,1.006 51.377,1.006 L53.624,1.006 C54.182,1.006 54.651,1.414 54.714,1.955 L54.929,3.360 C54.984,3.382 55.040,3.405 55.094,3.428 L56.151,2.631 C56.533,2.299 57.181,2.290 57.597,2.656 L57.782,2.825 C58.304,3.305 58.955,3.903 59.380,4.501 C59.502,4.642 59.586,4.881 59.586,5.147 C59.586,5.381 59.513,5.602 59.370,5.803 C59.198,6.036 59.027,6.255 58.855,6.474 C58.758,6.597 58.660,6.721 58.564,6.847 C58.602,6.931 58.638,7.015 58.671,7.100 L60.089,7.317 C60.627,7.414 61.003,7.869 61.003,8.404 L61.003,10.650 C61.003,11.162 60.618,11.638 60.127,11.732 ZM59.540,8.712 L58.017,8.480 C57.738,8.437 57.510,8.239 57.428,7.970 C57.343,7.691 57.220,7.401 57.066,7.108 C56.935,6.861 56.956,6.562 57.120,6.336 C57.309,6.075 57.507,5.823 57.704,5.571 C57.815,5.430 57.925,5.290 58.033,5.148 C57.682,4.724 57.226,4.301 56.839,3.945 L55.622,4.861 C55.397,5.030 55.094,5.056 54.845,4.926 C54.600,4.799 54.339,4.692 54.049,4.599 C53.784,4.514 53.591,4.287 53.549,4.012 L53.314,2.468 L51.658,2.468 C51.569,2.886 51.520,3.330 51.472,3.761 L51.447,3.986 C51.414,4.271 51.217,4.511 50.943,4.599 C50.676,4.683 50.404,4.798 50.135,4.937 C49.881,5.069 49.576,5.039 49.351,4.865 L48.148,3.933 C47.812,4.210 47.244,4.795 46.941,5.145 C47.251,5.526 47.568,5.929 47.876,6.363 C48.036,6.588 48.055,6.884 47.925,7.128 C47.774,7.413 47.665,7.669 47.583,7.934 C47.500,8.201 47.271,8.398 46.994,8.440 L45.461,8.670 L45.461,10.301 L46.981,10.524 C47.263,10.566 47.495,10.767 47.576,11.040 C47.658,11.321 47.780,11.612 47.936,11.907 C48.066,12.153 48.045,12.452 47.882,12.678 C47.691,12.942 47.491,13.197 47.291,13.451 C47.182,13.591 47.072,13.730 46.964,13.871 C47.296,14.272 47.764,14.703 48.170,15.071 L49.378,14.154 C49.603,13.984 49.907,13.958 50.157,14.089 C50.401,14.215 50.661,14.322 50.953,14.415 C51.217,14.500 51.411,14.727 51.453,15.002 L51.687,16.546 L53.343,16.546 C53.432,16.128 53.481,15.686 53.529,15.255 L53.554,15.028 C53.587,14.743 53.785,14.503 54.059,14.415 C54.328,14.329 54.600,14.216 54.866,14.078 C55.120,13.946 55.428,13.975 55.653,14.151 L56.846,15.086 C57.181,14.810 57.751,14.223 58.063,13.863 C57.714,13.437 57.416,13.060 57.121,12.635 C56.963,12.407 56.948,12.109 57.081,11.866 C57.204,11.643 57.310,11.394 57.425,11.060 C57.514,10.803 57.738,10.616 58.007,10.575 L59.540,10.343 L59.540,8.712 ZM52.501,12.829 C50.669,12.829 49.179,11.339 49.179,9.507 C49.179,7.676 50.669,6.186 52.501,6.186 C54.332,6.186 55.822,7.676 55.822,9.507 C55.822,11.339 54.332,12.829 52.501,12.829 ZM52.501,7.649 C51.476,7.649 50.642,8.482 50.642,9.507 C50.642,10.533 51.476,11.366 52.501,11.366 C53.526,11.366 54.360,10.533 54.360,9.507 C54.360,8.482 53.526,7.649 52.501,7.649 ZM44.751,25.418 C44.751,26.088 44.248,26.907 43.435,27.062 L38.560,27.795 C38.292,28.537 38.027,29.157 37.732,29.731 C38.647,31.009 39.629,32.196 40.503,33.253 C40.772,33.567 40.932,33.975 40.932,34.361 C40.932,34.760 40.797,35.109 40.519,35.429 C40.508,35.446 36.105,40.686 34.573,40.686 C34.222,40.686 33.867,40.570 33.490,40.332 L29.858,37.508 C29.228,37.814 28.590,38.080 27.953,38.301 L27.928,38.516 C27.753,40.074 27.572,41.687 27.162,43.219 C26.974,43.971 26.313,44.483 25.520,44.483 L19.239,44.483 C18.390,44.483 17.677,43.877 17.580,43.073 L16.851,38.308 C16.179,38.079 15.553,37.823 14.954,37.533 L11.284,40.302 C11.004,40.541 10.604,40.686 10.187,40.686 C9.764,40.686 9.340,40.506 9.024,40.191 L8.739,39.935 C7.268,38.611 5.438,36.963 4.291,35.385 C4.081,35.095 3.970,34.741 3.970,34.361 C3.970,33.998 4.080,33.676 4.314,33.347 C4.773,32.729 5.242,32.134 5.712,31.538 C6.158,30.973 6.616,30.393 7.055,29.804 C6.692,29.084 6.390,28.363 6.156,27.656 L1.381,26.955 C0.590,26.814 0.009,26.107 0.009,25.308 L0.009,19.063 C0.009,18.399 0.498,17.583 1.287,17.421 L6.190,16.687 C6.414,16.041 6.691,15.394 7.028,14.729 C6.097,13.447 5.111,12.232 4.257,11.200 C3.975,10.872 3.828,10.505 3.828,10.120 C3.828,9.677 4.019,9.354 4.206,9.097 C4.460,8.748 8.690,3.795 10.187,3.795 C10.567,3.795 10.957,3.938 11.315,4.209 L14.900,6.975 C15.532,6.667 16.171,6.401 16.807,6.180 L16.833,5.957 C17.007,4.401 17.188,2.793 17.597,1.262 C17.787,0.510 18.447,-0.002 19.239,-0.002 L25.520,-0.002 C26.356,-0.002 27.085,0.618 27.180,1.408 L27.909,6.174 C28.579,6.403 29.206,6.658 29.807,6.949 L33.476,4.201 C34.028,3.694 35.036,3.656 35.704,4.237 L36.200,4.690 C37.612,5.981 39.369,7.587 40.472,9.129 C40.669,9.357 40.790,9.714 40.790,10.120 C40.790,10.484 40.680,10.807 40.445,11.135 C39.987,11.752 39.517,12.347 39.047,12.944 C38.602,13.508 38.143,14.089 37.705,14.677 C38.064,15.389 38.364,16.100 38.601,16.799 L43.382,17.527 C44.170,17.668 44.751,18.374 44.751,19.174 L44.751,25.418 ZM43.460,19.174 C43.460,18.995 43.328,18.821 43.171,18.793 L38.011,18.008 C37.766,17.970 37.564,17.797 37.492,17.561 C37.227,16.699 36.852,15.809 36.378,14.918 C36.263,14.702 36.282,14.439 36.426,14.241 C36.948,13.525 37.499,12.827 38.031,12.152 C38.495,11.565 38.956,10.980 39.401,10.382 C39.482,10.268 39.499,10.198 39.499,10.120 C39.499,10.015 39.476,9.941 39.453,9.914 C38.396,8.440 36.694,6.885 35.327,5.635 L34.842,5.191 C34.674,5.045 34.409,5.086 34.350,5.145 C34.329,5.166 34.306,5.185 34.282,5.203 L30.263,8.213 C30.065,8.362 29.799,8.383 29.578,8.270 C28.820,7.879 28.021,7.552 27.135,7.270 C26.901,7.196 26.730,6.996 26.693,6.756 L25.901,1.581 C25.880,1.409 25.707,1.281 25.520,1.281 L19.239,1.281 C19.006,1.281 18.882,1.443 18.847,1.582 C18.460,3.029 18.285,4.590 18.115,6.100 L18.043,6.732 C18.014,6.983 17.840,7.194 17.598,7.270 C16.776,7.531 15.943,7.877 15.123,8.299 C14.900,8.413 14.629,8.389 14.431,8.236 L10.528,5.226 C10.405,5.133 10.279,5.078 10.187,5.078 C9.470,5.248 6.080,8.711 5.251,9.848 C5.141,10.001 5.119,10.065 5.119,10.120 C5.119,10.209 5.188,10.309 5.246,10.376 C6.192,11.520 7.289,12.872 8.309,14.304 C8.450,14.502 8.467,14.762 8.352,14.976 C7.896,15.830 7.550,16.640 7.295,17.454 C7.222,17.688 7.020,17.860 6.776,17.897 L1.514,18.684 C1.461,18.696 1.300,18.906 1.300,19.063 L1.300,25.308 C1.300,25.487 1.433,25.661 1.590,25.690 L6.745,26.445 C6.993,26.481 7.198,26.658 7.269,26.897 C7.528,27.767 7.903,28.664 8.382,29.563 C8.497,29.779 8.479,30.042 8.334,30.240 C7.811,30.956 7.261,31.655 6.728,32.330 C6.265,32.917 5.803,33.502 5.359,34.099 C5.278,34.213 5.261,34.283 5.261,34.361 C5.261,34.474 5.286,34.564 5.337,34.635 C6.405,36.102 8.179,37.700 9.605,38.984 L9.914,39.262 C10.141,39.487 10.342,39.416 10.475,39.303 L14.494,36.269 C14.609,36.183 14.746,36.139 14.884,36.139 C14.986,36.139 15.088,36.163 15.182,36.211 C15.937,36.601 16.736,36.928 17.626,37.211 C17.859,37.286 18.030,37.485 18.067,37.726 L18.859,42.901 C18.880,43.072 19.053,43.200 19.239,43.200 L25.520,43.200 C25.754,43.200 25.876,43.045 25.913,42.899 C26.301,41.449 26.476,39.886 26.646,38.374 L26.717,37.749 C26.745,37.499 26.920,37.288 27.161,37.211 C27.987,36.949 28.820,36.603 29.636,36.183 C29.860,36.067 30.132,36.092 30.331,36.247 L34.234,39.285 C34.395,39.384 34.518,39.403 34.573,39.403 C35.319,39.224 38.710,35.694 39.514,34.625 C39.635,34.484 39.642,34.431 39.642,34.361 C39.642,34.279 39.591,34.167 39.513,34.077 C38.544,32.905 37.454,31.586 36.447,30.143 C36.307,29.943 36.294,29.681 36.412,29.468 C36.798,28.771 37.124,28.013 37.470,27.010 C37.548,26.784 37.746,26.620 37.984,26.584 L43.217,25.797 C43.310,25.779 43.460,25.564 43.460,25.418 L43.460,19.174 ZM22.380,30.083 C18.031,30.083 14.493,26.565 14.493,22.241 C14.493,17.917 18.031,14.399 22.380,14.399 C26.729,14.399 30.267,17.917 30.267,22.241 C30.267,26.565 26.729,30.083 22.380,30.083 ZM22.380,15.682 C18.743,15.682 15.783,18.624 15.783,22.241 C15.783,25.857 18.743,28.800 22.380,28.800 C26.017,28.800 28.977,25.857 28.977,22.241 C28.977,18.624 26.017,15.682 22.380,15.682 ZM43.855,38.284 L45.345,38.058 C45.371,37.993 45.399,37.927 45.429,37.860 C45.163,37.505 44.891,37.169 44.632,36.853 C44.460,36.654 44.364,36.405 44.364,36.147 C44.364,35.841 44.496,35.623 44.594,35.487 C44.611,35.464 46.251,33.372 47.139,33.372 C47.387,33.372 47.631,33.459 47.847,33.625 L48.892,34.434 C48.942,34.412 48.993,34.391 49.044,34.371 C49.102,33.863 49.171,33.344 49.306,32.833 C49.427,32.350 49.869,32.006 50.377,32.006 L52.624,32.006 C53.182,32.006 53.651,32.414 53.714,32.955 L53.929,34.360 C53.984,34.382 54.040,34.405 54.094,34.428 L55.151,33.631 C55.533,33.299 56.181,33.290 56.597,33.656 L56.782,33.825 C57.304,34.305 57.955,34.903 58.380,35.501 C58.502,35.642 58.586,35.881 58.586,36.147 C58.586,36.380 58.513,36.602 58.370,36.803 C58.198,37.036 58.027,37.255 57.855,37.474 C57.758,37.597 57.661,37.721 57.564,37.847 C57.602,37.931 57.638,38.016 57.671,38.100 L59.089,38.317 C59.627,38.414 60.003,38.870 60.003,39.404 L60.003,41.650 C60.003,42.162 59.618,42.638 59.127,42.733 L57.652,42.956 C57.625,43.022 57.599,43.086 57.571,43.147 C57.839,43.506 58.117,43.843 58.369,44.150 C58.539,44.349 58.637,44.606 58.637,44.867 C58.637,45.133 58.546,45.373 58.366,45.580 L58.367,45.580 C58.368,45.580 56.734,47.642 55.862,47.642 C55.641,47.642 55.421,47.573 55.207,47.438 L54.108,46.581 C54.058,46.603 54.007,46.624 53.957,46.644 C53.899,47.151 53.831,47.671 53.695,48.182 C53.575,48.664 53.133,49.008 52.624,49.008 L50.377,49.008 C49.821,49.008 49.352,48.601 49.287,48.061 L49.073,46.654 C49.017,46.632 48.963,46.610 48.909,46.587 L47.834,47.403 C47.482,47.704 46.774,47.722 46.369,47.317 L46.291,47.247 C45.746,46.755 45.068,46.140 44.625,45.529 C44.487,45.337 44.415,45.108 44.415,44.867 C44.415,44.635 44.487,44.416 44.629,44.215 C44.802,43.980 44.971,43.764 45.141,43.548 C45.240,43.422 45.339,43.295 45.437,43.168 C45.398,43.080 45.362,42.993 45.328,42.906 L43.916,42.698 C43.375,42.600 42.998,42.145 42.998,41.611 L42.998,39.364 C42.998,38.857 43.375,38.382 43.855,38.284 ZM44.461,41.301 L45.981,41.524 C46.263,41.566 46.495,41.767 46.576,42.040 C46.658,42.321 46.780,42.612 46.936,42.907 C47.066,43.153 47.045,43.452 46.882,43.678 C46.691,43.942 46.491,44.197 46.291,44.451 C46.182,44.591 46.072,44.730 45.964,44.871 C46.296,45.272 46.764,45.702 47.171,46.071 L48.378,45.154 C48.603,44.984 48.907,44.958 49.157,45.089 C49.401,45.214 49.661,45.322 49.953,45.415 C50.217,45.500 50.411,45.727 50.453,46.002 L50.687,47.546 L52.343,47.546 C52.432,47.128 52.481,46.686 52.529,46.255 L52.554,46.029 C52.587,45.743 52.785,45.503 53.059,45.415 C53.328,45.329 53.600,45.216 53.866,45.078 C54.120,44.946 54.428,44.975 54.653,45.151 L55.846,46.086 C56.181,45.810 56.751,45.223 57.063,44.863 C56.714,44.437 56.416,44.060 56.121,43.635 C55.963,43.407 55.948,43.109 56.081,42.866 C56.204,42.643 56.310,42.394 56.425,42.060 C56.514,41.803 56.738,41.616 57.007,41.575 L58.540,41.343 L58.540,39.712 L57.017,39.480 C56.738,39.437 56.510,39.239 56.428,38.970 C56.343,38.690 56.220,38.401 56.065,38.108 C55.935,37.861 55.956,37.562 56.120,37.336 C56.309,37.075 56.507,36.823 56.704,36.571 C56.815,36.430 56.925,36.290 57.033,36.148 C56.682,35.724 56.226,35.301 55.839,34.945 L54.622,35.861 C54.397,36.030 54.094,36.056 53.845,35.926 C53.600,35.799 53.339,35.691 53.049,35.599 C52.784,35.514 52.590,35.287 52.549,35.012 L52.314,33.468 L50.658,33.468 C50.569,33.886 50.520,34.330 50.472,34.761 L50.447,34.985 C50.414,35.271 50.217,35.511 49.943,35.599 C49.676,35.684 49.404,35.798 49.135,35.937 C48.881,36.068 48.576,36.039 48.351,35.865 L47.148,34.933 C46.812,35.210 46.244,35.795 45.941,36.144 C46.251,36.526 46.568,36.929 46.876,37.363 C47.036,37.588 47.055,37.884 46.925,38.128 C46.774,38.414 46.665,38.669 46.583,38.934 C46.500,39.201 46.271,39.398 45.994,39.440 L44.461,39.670 L44.461,41.301 ZM51.501,37.186 C53.332,37.186 54.822,38.676 54.822,40.507 C54.822,42.339 53.332,43.828 51.501,43.828 C49.669,43.828 48.179,42.339 48.179,40.507 C48.179,38.676 49.669,37.186 51.501,37.186 ZM51.501,42.366 C52.526,42.366 53.360,41.533 53.360,40.507 C53.360,39.483 52.526,38.649 51.501,38.649 C50.476,38.649 49.642,39.483 49.642,40.507 C49.642,41.533 50.476,42.366 51.501,42.366 Z" class="cls-1"/>
</svg>
